<?xml version="1.0" encoding="utf-8"?>
<!-- Generator: Adobe Illustrator 23.0.3, SVG Export Plug-In . SVG Version: 6.00 Build 0)  -->
<svg version="1.1" id="Layer_2" xmlns="http://www.w3.org/2000/svg" xmlns:xlink="http://www.w3.org/1999/xlink" x="0px" y="0px"
	 viewBox="0 0 311.35 356.93" style="enable-background:new 0 0 311.35 356.93;" xml:space="preserve">
<style type="text/css">
	.st0{fill:#FFFFFF;}
</style>
<g>
	<g>
		<path class="st0" d="M141.78,352.4c1.54,0.16,2.3,0.38,3.03,0.3c5.14-0.56,9.78-2.41,14.14-5.21c1.07-0.69,2.81-0.86,4.09-0.59
			c5.2,1.08,10.27,2.91,15.51,3.58c8.96,1.15,17.76-0.15,26.19-3.55c1.68-0.68,3.11-0.55,4.67,0.55c4.22,2.98,8.98,4.69,14.13,5.22
			c0.64,0.07,1.32-0.27,1.98-0.41c-0.26-0.55-0.43-1.18-0.8-1.63c-1.41-1.71-2.88-3.36-4.67-5.43c0.98,0.28,1.64,0.28,1.99,0.6
			c1.73,1.63,3.34,3.39,5.06,5.02c0.93,0.88,2.03,2.3,3.01,2.27c3.89-0.11,7.8-0.51,11.63-1.19c2.11-0.37,2.27-1.44,0.72-3.14
			c-1.93-2.11-3.99-4.11-6-6.15c0.79-0.24,1.54-0.19,1.99,0.19c1.81,1.56,3.68,3.09,5.26,4.88c2.54,2.88,2.81,3.05,6.05,0.89
			c1.24-0.83,2.45-1.72,3.56-2.72c1.33-1.2,1.44-2.5,0.09-3.87c-1.75-1.77-3.42-3.62-5.41-5.75c2.84,0.29,4.2,2.15,5.87,3.53
			c0.56,0.47,1.32,0.7,1.98,1.04c0.27-0.73,0.94-1.61,0.74-2.18c-0.7-1.99-1.32-4.21-2.65-5.75c-4.72-5.45-11.3-7.01-18.09-7.9
			c-3.05-0.4-3.24-0.84-1.6-3.53c5.64-9.19,9.23-19.17,11.08-29.76c0.86-4.91,1.18-9.91,1.93-14.85c1.26-8.21,0.56-16.41-1.28-24.32
			c-2.14-9.2-5.02-18.28-8.25-27.16c-5.27-14.5-12.55-28.08-20.26-41.42c-0.92-1.6-1.77-3.24-2.7-4.94
			c0.68-0.33,0.98-0.59,1.27-0.59c1.58,0,3.16,0.02,4.74,0.1c10.5,0.49,20.8-0.41,30.7-4.22c3.7-1.42,7.5-2.59,10.65-5.19
			c1.53-1.26,3.41-1.81,4.93-3.42c2.56-2.69,4.78-6.58,9.62-5.84c-2.65-0.98-2.84-1.42-1.44-3.6c5.49-8.5,7.8-17.76,6.39-27.81
			c-0.55-3.94-1.61-7.81-2.2-11.75c-0.17-1.16,0.09-2.72,0.78-3.62c5.98-7.78,12.31-15.3,18.13-23.2
			c4.97-6.75,9.62-13.77,12.07-21.97c1.34-4.49-0.6-7.7-5.28-7.53c-3.87,0.13-7.83,0.67-11.55,1.71
			c-13.65,3.83-26.62,9.46-39.41,15.5c-1.83,0.86-3.34,0.83-5.07-0.48c-6.99-5.3-14.46-9.86-22.64-13.05
			c-5.49-2.14-11.15-3.85-16.72-5.78c-1.52-0.52-3.18-0.65-3.69-2.8c-3.21-13.34-6.71-26.62-12.04-39.29
			c-1.88-4.46-4.43-8.75-7.33-12.63c-2.31-3.09-4.97-2.77-7.59,0.05c-1.12,1.21-2.16,2.56-2.93,4c-5.21,9.69-7.85,20.28-10.43,30.87
			c-1.46,5.98-2.54,12.05-4.04,18.01c-0.31,1.23-1.53,2.54-2.68,3.2c-3.23,1.86-6.81,3.13-9.96,5.11
			c-8.76,5.5-14.88,13.17-18.01,23.13c-0.23,0.74-1.2,1.25-1.99,2.03c1.35,4.07,0.4,8.44-0.56,12.91c0.29,0.8,0.9,1.76,0.95,2.75
			c0.15,2.79,0.5,5.49,1.55,8.13c1.42,3.54,2.36,7.29,3.98,10.73c6.06,12.83,15.31,23.07,26.47,31.67c4.2,3.23,4.2,3.22,1.53,7.59
			c-0.3,0.5-0.56,1.02-0.88,1.51c-12.94,20.23-24.72,41.07-33.17,63.62c-5.2,13.86-9.06,28.04-8.28,43.09
			c0.04,0.86-0.18,1.73-0.3,2.68c-0.53-0.13-0.81-0.13-0.98-0.26c-0.52-0.41-1.02-0.86-1.49-1.33
			c-11.74-11.66-26.3-18.06-41.89-22.6c-6.94-2.02-13.95-3.88-20.71-6.42c-12.33-4.64-23-11.85-31.63-21.96
			c-8.48-9.93-13.3-21.33-13.33-34.41c-0.04-13.82,4.48-26.13,13.73-36.56c7.8-8.8,17.45-14.44,29.14-15.93
			c14.97-1.92,28.11,2.29,38.5,13.45c10.05,10.8,14.63,23.59,12.7,38.45c-2.25,17.33-19.03,25.03-32.68,22.47
			c-10.92-2.05-17.29-11.04-15.45-21.68c1.29-7.49,9.04-14.01,17.4-11.32c3.75,1.21,6.41,3.58,9.26,6.86c0-1.21,0.23-2-0.03-2.55
			c-3.79-7.79-11.9-11.59-19.94-9.1c-6.58,2.04-10.29,6.83-11.99,13.25c-2.2,8.34,0.18,19.65,7.96,25.2
			c7.89,5.63,16.53,6.55,25.89,4.67c17.73-3.55,27.4-18.86,26.37-35.42c-0.59-9.53-3.83-18.34-8.84-26.49
			c-4.99-8.1-11.36-14.89-19.96-19.05c-13.44-6.49-27.44-6.75-41.25-1.46c-19.96,7.64-31.22,22.97-35.55,43.39
			c-3.24,15.26-0.01,29.62,8.41,42.77c10.18,15.91,24.99,25.79,42.43,31.98c9.24,3.27,18.78,5.66,28.07,8.8
			c12.07,4.08,22.93,10.29,31.38,20.03c2.52,2.9,5.44,6.18,6.21,9.72c2.56,11.73,5.97,23.02,12.43,33.23
			c0.96,1.52,0.71,2.19-1.09,2.52c-3.34,0.62-6.73,1.15-9.97,2.13c-3.68,1.12-7.04,2.96-9.58,6.02c-2.23,2.69-2.78,5.67-1.36,8.27
			c2.65-1.38,4.01-4.97,7.71-5.01c-2.15,2.25-4.15,4.21-5.95,6.34c-0.42,0.49-0.5,1.99-0.13,2.3c2,1.7,4.09,3.36,6.37,4.62
			c0.68,0.38,2.32-0.28,3.13-0.94c2.1-1.73,3.95-3.77,5.96-5.61c0.45-0.41,1.17-0.53,1.77-0.79c0.25,0.32,0.5,0.63,0.74,0.95
			c-1.98,1.73-4.11,3.32-5.91,5.22c-1.97,2.08-1.65,3.19,1.21,3.74c3.26,0.62,6.6,0.96,9.91,1c1.14,0.01,2.46-1.05,3.42-1.93
			c1.7-1.56,3.16-3.4,4.8-5.04c0.48-0.48,1.25-0.67,1.89-0.99c0.1,0.16,0.21,0.31,0.31,0.47
			C145.92,347.73,144.1,349.79,141.78,352.4z"/>
		<path d="M141.78,352.4c2.32-2.62,4.14-4.67,5.96-6.73c-0.1-0.16-0.21-0.31-0.31-0.47c-0.64,0.32-1.41,0.51-1.89,0.99
			c-1.64,1.64-3.09,3.47-4.8,5.04c-0.96,0.88-2.28,1.95-3.42,1.93c-3.31-0.04-6.66-0.37-9.91-1c-2.86-0.55-3.18-1.65-1.21-3.74
			c1.8-1.9,3.93-3.49,5.91-5.22c-0.25-0.32-0.5-0.63-0.74-0.95c-0.6,0.26-1.32,0.38-1.77,0.79c-2.01,1.84-3.86,3.87-5.96,5.61
			c-0.8,0.66-2.44,1.32-3.13,0.94c-2.28-1.26-4.38-2.92-6.37-4.62c-0.37-0.32-0.28-1.81,0.13-2.3c1.8-2.13,3.81-4.09,5.95-6.34
			c-3.71,0.04-5.06,3.63-7.71,5.01c-1.41-2.6-0.87-5.59,1.36-8.27c2.54-3.06,5.9-4.9,9.58-6.02c3.24-0.98,6.63-1.52,9.97-2.13
			c1.79-0.33,2.05-0.99,1.09-2.52c-6.46-10.21-9.87-21.5-12.43-33.23c-0.77-3.54-3.7-6.82-6.21-9.72
			c-8.45-9.74-19.32-15.95-31.38-20.03c-9.29-3.14-18.83-5.53-28.07-8.8c-17.44-6.18-32.25-16.06-42.43-31.98
			c-8.42-13.15-11.65-27.5-8.41-42.77c4.33-20.42,15.59-35.75,35.55-43.39c13.81-5.29,27.81-5.03,41.25,1.46
			c8.6,4.15,14.98,10.94,19.96,19.05c5.01,8.14,8.25,16.95,8.84,26.49c1.03,16.56-8.64,31.87-26.37,35.42
			c-9.36,1.87-18.01,0.96-25.89-4.67c-7.77-5.55-10.15-16.86-7.96-25.2c1.69-6.42,5.41-11.21,11.99-13.25
			c8.04-2.49,16.15,1.32,19.94,9.1c0.27,0.55,0.03,1.34,0.03,2.55c-2.85-3.27-5.51-5.65-9.26-6.86c-8.36-2.69-16.1,3.83-17.4,11.32
			c-1.84,10.64,4.53,19.63,15.45,21.68c13.65,2.56,30.43-5.15,32.68-22.47c1.93-14.86-2.65-27.65-12.7-38.45
			c-10.39-11.17-23.53-15.37-38.5-13.45c-11.69,1.5-21.34,7.13-29.14,15.93c-9.24,10.43-13.76,22.73-13.73,36.56
			c0.03,13.08,4.85,24.48,13.33,34.41c8.63,10.11,19.3,17.32,31.63,21.96c6.75,2.54,13.77,4.4,20.71,6.42
			c15.59,4.54,30.15,10.94,41.89,22.6c0.47,0.47,0.97,0.91,1.49,1.33c0.17,0.13,0.45,0.13,0.98,0.26c0.11-0.95,0.34-1.82,0.3-2.68
			c-0.78-15.05,3.08-29.23,8.28-43.09c8.46-22.55,20.23-43.39,33.17-63.62c0.31-0.49,0.57-1.02,0.88-1.51
			c2.68-4.37,2.67-4.36-1.53-7.59c-11.17-8.6-20.41-18.84-26.47-31.67c-1.62-3.44-2.56-7.19-3.98-10.73
			c-1.06-2.64-1.41-5.33-1.55-8.13c-0.05-0.99-0.66-1.95-0.95-2.75c0.96-4.47,1.9-8.84,0.56-12.91c0.79-0.78,1.76-1.29,1.99-2.03
			c3.13-9.96,9.24-17.63,18.01-23.13c3.15-1.98,6.73-3.25,9.96-5.11c1.15-0.66,2.37-1.97,2.68-3.2c1.5-5.97,2.58-12.04,4.04-18.01
			c2.58-10.59,5.21-21.17,10.43-30.87c0.78-1.45,1.81-2.8,2.93-4c2.62-2.82,5.27-3.14,7.59-0.05c2.9,3.88,5.45,8.17,7.33,12.63
			c5.33,12.67,8.83,25.95,12.04,39.29c0.52,2.15,2.17,2.27,3.69,2.8c5.58,1.92,11.23,3.63,16.72,5.78
			c8.19,3.2,15.65,7.76,22.64,13.05c1.73,1.31,3.24,1.34,5.07,0.48c12.79-6.04,25.76-11.67,39.41-15.5
			c3.72-1.05,7.68-1.58,11.55-1.71c4.69-0.16,6.63,3.04,5.28,7.53c-2.45,8.2-7.1,15.22-12.07,21.97
			c-5.82,7.9-12.15,15.42-18.13,23.2c-0.69,0.9-0.95,2.46-0.78,3.62c0.59,3.94,1.65,7.81,2.2,11.75c1.41,10.05-0.9,19.31-6.39,27.81
			c-1.41,2.18-1.21,2.63,1.44,3.6c-4.84-0.74-7.07,3.14-9.62,5.84c-1.52,1.6-3.41,2.15-4.93,3.42c-3.15,2.6-6.95,3.77-10.65,5.19
			c-9.9,3.81-20.21,4.71-30.7,4.22c-1.58-0.07-3.16-0.1-4.74-0.1c-0.29,0-0.58,0.26-1.27,0.59c0.92,1.7,1.77,3.34,2.7,4.94
			c7.71,13.34,14.99,26.92,20.26,41.42c3.23,8.89,6.11,17.96,8.25,27.16c1.84,7.92,2.54,16.11,1.28,24.32
			c-0.76,4.93-1.08,9.94-1.93,14.85c-1.85,10.59-5.44,20.57-11.08,29.76c-1.65,2.68-1.45,3.13,1.6,3.53
			c6.79,0.89,13.38,2.44,18.09,7.9c1.33,1.54,1.95,3.76,2.65,5.75c0.2,0.57-0.47,1.44-0.74,2.18c-0.67-0.34-1.42-0.58-1.98-1.04
			c-1.67-1.38-3.03-3.24-5.87-3.53c2,2.13,3.67,3.98,5.41,5.75c1.35,1.37,1.24,2.68-0.09,3.87c-1.11,1-2.32,1.9-3.56,2.72
			c-3.24,2.15-3.51,1.99-6.05-0.89c-1.57-1.79-3.44-3.32-5.26-4.88c-0.45-0.39-1.2-0.44-1.99-0.19c2,2.04,4.07,4.04,6,6.15
			c1.55,1.7,1.39,2.77-0.72,3.14c-3.83,0.68-7.74,1.07-11.63,1.19c-0.99,0.03-2.09-1.39-3.01-2.27c-1.73-1.63-3.33-3.39-5.06-5.02
			c-0.34-0.33-1-0.32-1.99-0.6c1.79,2.07,3.27,3.72,4.67,5.43c0.37,0.46,0.54,1.08,0.8,1.63c-0.66,0.15-1.34,0.48-1.98,0.41
			c-5.15-0.53-9.9-2.24-14.13-5.22c-1.56-1.1-2.98-1.23-4.67-0.55c-8.43,3.4-17.23,4.69-26.19,3.55c-5.23-0.67-10.31-2.5-15.51-3.58
			c-1.29-0.27-3.02-0.09-4.09,0.59c-4.36,2.8-9,4.65-14.14,5.21C144.09,352.79,143.32,352.57,141.78,352.4z M250.35,144.94
			c2.41-0.56,4.94-0.84,7.22-1.74c6.27-2.47,9.78-7.73,12.89-13.35c1.47-2.67,1-5.04-0.54-7.47c-2.51-3.97-5.97-6.83-10.42-8.07
			c-16.07-4.48-30.05-0.64-41.96,10.99c-1.44,1.4-1.38,2.55,0.22,3.65c5.01,3.42,9.9,7.05,15.1,10.16
			C238.18,142.28,243.95,144.47,250.35,144.94z M163.82,70.33c-6.36-0.01-7.29,0.42-9.61,6.21c-4.35,10.84-3.16,20.96,6.98,27.8
			c8.56,5.77,18.29,8.57,28.21,10.84c0.52,0.12,1.75-0.74,1.86-1.29c0.43-2.28,0.8-4.62,0.73-6.92c-0.31-9.87-3.46-18.75-9.93-26.29
			C177.23,75.06,171.69,70.6,163.82,70.33z M202.51,139.08c0.11-0.36,0.22-0.71,0.33-1.07c-3.63-1.64-7.25-3.29-10.92-4.83
			c-0.1-0.04-1.1,1.19-0.96,1.54c2.85,7.15,1.57,7.84,9,5.17C200.8,139.6,201.66,139.35,202.51,139.08z"/>
		<path class="st0" d="M250.35,144.94c-6.4-0.47-12.18-2.66-17.49-5.83c-5.2-3.1-10.08-6.74-15.1-10.16
			c-1.61-1.1-1.66-2.24-0.22-3.65c11.91-11.63,25.89-15.47,41.96-10.99c4.46,1.24,7.92,4.1,10.42,8.07c1.53,2.43,2.01,4.8,0.54,7.47
			c-3.11,5.62-6.62,10.88-12.89,13.35C255.29,144.1,252.77,144.38,250.35,144.94z M241.46,137.52c0.06-0.31-0.11,0.1-0.08,0.5
			c0.04,0.53,0.14,1.42,0.38,1.48c0.54,0.13,1.36,0.05,1.75-0.3c6.2-5.49,9.56-12.4,9.98-20.68c0.03-0.54-0.38-1.38-0.82-1.58
			c-0.4-0.19-1.27,0.14-1.66,0.51C245.49,122.73,241.93,128.99,241.46,137.52z"/>
		<path class="st0" d="M163.82,70.33c7.87,0.27,13.41,4.73,18.23,10.34c6.47,7.54,9.62,16.42,9.93,26.29
			c0.07,2.3-0.3,4.65-0.73,6.92c-0.1,0.55-1.33,1.41-1.86,1.29c-9.91-2.26-19.65-5.06-28.21-10.84
			c-10.14-6.84-11.33-16.96-6.98-27.8C156.53,70.75,157.46,70.33,163.82,70.33z M164.45,103.48c0.96-0.34,1.49-0.39,1.84-0.67
			c6.73-5.56,10.04-12.8,10.39-21.45c0.02-0.42-0.29-1.16-0.57-1.23c-0.45-0.11-1.16,0.07-1.49,0.4c-1.69,1.7-3.47,3.36-4.88,5.28
			C166.02,90.92,164.48,96.73,164.45,103.48z"/>
		<path class="st0" d="M202.51,139.08c-0.85,0.27-1.71,0.51-2.55,0.81c-7.43,2.67-6.15,1.98-9-5.17c-0.14-0.35,0.86-1.58,0.96-1.54
			c3.67,1.55,7.29,3.2,10.92,4.83C202.73,138.37,202.62,138.73,202.51,139.08z"/>
		<path d="M241.46,137.52c0.47-8.53,4.04-14.79,9.56-20.07c0.39-0.38,1.27-0.7,1.66-0.51c0.44,0.2,0.84,1.04,0.82,1.58
			c-0.42,8.29-3.78,15.19-9.98,20.68c-0.39,0.35-1.22,0.43-1.75,0.3c-0.24-0.06-0.34-0.96-0.38-1.48
			C241.35,137.62,241.52,137.21,241.46,137.52z"/>
		<path d="M164.45,103.48c0.03-6.75,1.57-12.57,5.3-17.67c1.41-1.92,3.19-3.58,4.88-5.28c0.32-0.33,1.04-0.5,1.49-0.4
			c0.28,0.07,0.59,0.8,0.57,1.23c-0.36,8.65-3.67,15.89-10.39,21.45C165.95,103.1,165.41,103.15,164.45,103.48z"/>
	</g>
</g>
</svg>
